<svg width="108" height="50" viewBox="0 0 108 50" fill="none" xmlns="http://www.w3.org/2000/svg">
<path d="M24.1942 13.324H28.6727V15.953H20.7754V1.97172H24.1942V13.324Z" fill="black"/>
<path d="M32.0228 3.68452C31.423 3.68452 30.9299 3.51192 30.5433 3.1667C30.1701 2.80821 29.9835 2.37004 29.9835 1.85222C29.9835 1.32111 30.1701 0.882948 30.5433 0.537731C30.9299 0.179236 31.423 0 32.0228 0C32.6093 0 33.0891 0.179236 33.4623 0.537731C33.8489 0.882948 34.0421 1.32111 34.0421 1.85222C34.0421 2.37004 33.8489 2.80821 33.4623 3.1667C33.0891 3.51192 32.6093 3.68452 32.0228 3.68452ZM33.7222 4.83967V15.953H30.3034V4.83967H33.7222Z" fill="black"/>
<path d="M42.9975 4.72017C44.3038 4.72017 45.3434 5.14506 46.1165 5.99483C46.9029 6.83131 47.2961 7.98645 47.2961 9.46026V15.953H43.8972V9.91834C43.8972 9.1748 43.704 8.59722 43.3174 8.18562C42.9309 7.77401 42.4111 7.56821 41.758 7.56821C41.1048 7.56821 40.585 7.77401 40.1985 8.18562C39.812 8.59722 39.6187 9.1748 39.6187 9.91834V15.953H36.1998V4.83967H39.6187V6.31347C39.9652 5.8222 40.4317 5.43716 41.0182 5.15833C41.6047 4.86622 42.2645 4.72017 42.9975 4.72017Z" fill="black"/>
<path d="M48.9921 10.3963C48.9921 9.24119 49.2253 8.23209 49.6918 7.36905C50.1717 6.506 50.8314 5.84214 51.6712 5.37742C52.5242 4.91271 53.4972 4.68034 54.5902 4.68034C55.9897 4.68034 57.156 5.04546 58.089 5.77573C59.0353 6.506 59.6551 7.53501 59.9483 8.86277H56.3096C56.003 8.01301 55.4099 7.58812 54.5302 7.58812C53.9037 7.58812 53.4039 7.83376 53.0307 8.32503C52.6575 8.80302 52.4709 9.49346 52.4709 10.3963C52.4709 11.2992 52.6575 11.9963 53.0307 12.4876C53.4039 12.9655 53.9037 13.2045 54.5302 13.2045C55.4099 13.2045 56.003 12.7797 56.3096 11.9299H59.9483C59.6551 13.2311 59.0353 14.2535 58.089 14.997C57.1426 15.7406 55.9764 16.1123 54.5902 16.1123C53.4972 16.1123 52.5242 15.88 51.6712 15.4153C50.8314 14.9505 50.1717 14.2867 49.6918 13.4236C49.2253 12.5606 48.9921 11.5515 48.9921 10.3963Z" fill="black"/>
<path d="M66.8554 16.1123C65.7624 16.1123 64.7761 15.88 63.8964 15.4153C63.03 14.9505 62.3436 14.2867 61.8371 13.4236C61.3439 12.5606 61.0973 11.5515 61.0973 10.3963C61.0973 9.25447 61.3506 8.252 61.8571 7.38896C62.3636 6.51264 63.0567 5.84214 63.9364 5.37742C64.8161 4.91271 65.8024 4.68034 66.8954 4.68034C67.9883 4.68034 68.9747 4.91271 69.8544 5.37742C70.7341 5.84214 71.4272 6.51264 71.9337 7.38896C72.4401 8.252 72.6934 9.25447 72.6934 10.3963C72.6934 11.5382 72.4335 12.5473 71.9137 13.4236C71.4072 14.2867 70.7074 14.9505 69.8144 15.4153C68.9347 15.88 67.9483 16.1123 66.8554 16.1123ZM66.8554 13.1647C67.5085 13.1647 68.0616 12.9257 68.5148 12.4477C68.9813 11.9697 69.2146 11.2859 69.2146 10.3963C69.2146 9.50674 68.988 8.82294 68.5348 8.34494C68.095 7.86695 67.5485 7.62796 66.8954 7.62796C66.2289 7.62796 65.6758 7.86695 65.2359 8.34494C64.7961 8.80966 64.5761 9.49346 64.5761 10.3963C64.5761 11.2859 64.7894 11.9697 65.2159 12.4477C65.6558 12.9257 66.2023 13.1647 66.8554 13.1647Z" fill="black"/>
<path d="M77.926 1.21488V15.953H74.5072V1.21488H77.926Z" fill="black"/>
<path d="M87.2013 4.72017C88.5075 4.72017 89.5471 5.14506 90.3202 5.99483C91.1066 6.83131 91.4998 7.98645 91.4998 9.46026V15.953H88.101V9.91834C88.101 9.1748 87.9077 8.59722 87.5212 8.18562C87.1346 7.77401 86.6148 7.56821 85.9617 7.56821C85.3086 7.56821 84.7888 7.77401 84.4022 8.18562C84.0157 8.59722 83.8224 9.1748 83.8224 9.91834V15.953H80.4036V4.83967H83.8224V6.31347C84.169 5.8222 84.6355 5.43716 85.222 5.15833C85.8084 4.86622 86.4682 4.72017 87.2013 4.72017Z" fill="black"/>
<path d="M54.1303 34.8076C53.1573 34.8076 52.2909 34.6416 51.5312 34.3097C50.7715 33.9777 50.1717 33.5263 49.7318 32.9554C49.292 32.3712 49.0454 31.7206 48.9921 31.0036H52.3709C52.4109 31.3886 52.5908 31.7006 52.9107 31.9396C53.2306 32.1786 53.6238 32.2981 54.0903 32.2981C54.5169 32.2981 54.8434 32.2185 55.07 32.0591C55.3099 31.8865 55.4299 31.6674 55.4299 31.4019C55.4299 31.0832 55.2633 30.8509 54.93 30.7048C54.5968 30.5455 54.057 30.3729 53.3106 30.187C52.5109 30.0011 51.8444 29.8086 51.3113 29.6094C50.7781 29.397 50.3183 29.0717 49.9317 28.6335C49.5452 28.1821 49.3519 27.578 49.3519 26.8211C49.3519 26.1838 49.5252 25.6062 49.8718 25.0884C50.2316 24.5573 50.7515 24.1391 51.4312 23.8337C52.1243 23.5283 52.944 23.3756 53.8904 23.3756C55.2899 23.3756 56.3895 23.7208 57.1893 24.4113C58.0023 25.1017 58.4688 26.0178 58.5888 27.1597H55.4299C55.3766 26.7747 55.2033 26.4693 54.9101 26.2435C54.6302 26.0178 54.2569 25.905 53.7904 25.905C53.3906 25.905 53.084 25.9846 52.8708 26.144C52.6575 26.29 52.5509 26.4958 52.5509 26.7614C52.5509 27.08 52.7175 27.319 53.0507 27.4784C53.3972 27.6377 53.9304 27.797 54.6501 27.9564C55.4765 28.1688 56.1496 28.3812 56.6695 28.5937C57.1893 28.7929 57.6425 29.1248 58.029 29.5895C58.4289 30.0409 58.6355 30.6517 58.6488 31.4218C58.6488 32.0724 58.4622 32.6566 58.089 33.1745C57.7291 33.679 57.2026 34.0773 56.5095 34.3694C55.8297 34.6615 55.0367 34.8076 54.1303 34.8076Z" fill="black"/>
<path d="M66.9583 31.7604V34.6483H65.2189C63.9793 34.6483 63.013 34.3495 62.3199 33.752C61.6268 33.1413 61.2802 32.1521 61.2802 30.7845V26.363H59.9207V23.5349H61.2802V20.8263H64.6991V23.5349H66.9383V26.363H64.6991V30.8243C64.6991 31.1563 64.779 31.3953 64.939 31.5413C65.0989 31.6874 65.3655 31.7604 65.7387 31.7604H66.9583Z" fill="black"/>
<path d="M79.8789 23.5349V34.6483H76.4601V33.1346C76.1135 33.6259 75.6404 34.0242 75.0406 34.3296C74.4541 34.6217 73.801 34.7678 73.0812 34.7678C72.2282 34.7678 71.4751 34.5819 70.822 34.2101C70.1689 33.825 69.6624 33.274 69.3025 32.557C68.9426 31.8401 68.7627 30.9969 68.7627 30.0277V23.5349H72.1615V29.5696C72.1615 30.3131 72.3548 30.8907 72.7413 31.3023C73.1279 31.7139 73.6477 31.9197 74.3008 31.9197C74.9673 31.9197 75.4937 31.7139 75.8803 31.3023C76.2668 30.8907 76.4601 30.3131 76.4601 29.5696V23.5349H79.8789Z" fill="black"/>
<path d="M81.6549 29.0717C81.6549 27.9298 81.8681 26.9273 82.2947 26.0643C82.7345 25.2013 83.3277 24.5374 84.0741 24.0727C84.8205 23.608 85.6535 23.3756 86.5732 23.3756C87.3063 23.3756 87.9727 23.5283 88.5725 23.8337C89.1857 24.1391 89.6655 24.5507 90.012 25.0685V19.9101H93.4309V34.6483H90.012V33.055C89.6922 33.5861 89.2323 34.0109 88.6325 34.3296C88.0461 34.6483 87.3596 34.8076 86.5732 34.8076C85.6535 34.8076 84.8205 34.5752 84.0741 34.1105C83.3277 33.6325 82.7345 32.962 82.2947 32.099C81.8681 31.2227 81.6549 30.2135 81.6549 29.0717ZM90.012 29.0916C90.012 28.2418 89.7721 27.5713 89.2923 27.08C88.8258 26.5888 88.2527 26.3431 87.5729 26.3431C86.8931 26.3431 86.3133 26.5888 85.8335 27.08C85.367 27.558 85.1337 28.2219 85.1337 29.0717C85.1337 29.9214 85.367 30.5986 85.8335 31.1031C86.3133 31.5944 86.8931 31.8401 87.5729 31.8401C88.2527 31.8401 88.8258 31.5944 89.2923 31.1031C89.7721 30.6119 90.012 29.9414 90.012 29.0916Z" fill="black"/>
<path d="M107.3 23.5349L100.303 39.9261H96.624L99.1832 34.2698L94.6447 23.5349H98.4634L101.043 30.4857L103.602 23.5349H107.3Z" fill="black"/>
<path fill-rule="evenodd" clip-rule="evenodd" d="M21.4155 38.6573C22.6808 23.7728 11.9759 16.1079 4.84616 11.7449L6.57989 8.93336C13.4202 13.1192 24.9923 21.1458 24.8301 36.5701C34.4397 34.0731 47.3236 34.2001 59.28 43.5638L57.2329 46.1579C45.4173 36.9044 32.6449 37.4821 23.5694 40.3682L21.2061 41.1198L21.4155 38.6573Z" fill="#F4E6D7"/>
<path fill-rule="evenodd" clip-rule="evenodd" d="M19.7983 41.8162C21.1721 25.6557 9.5421 17.3385 1.83932 12.6248L3.57306 9.81325C10.9845 14.3486 23.482 23.0268 23.2193 39.7226C33.5871 36.9878 47.5382 37.0721 60.4811 47.2084L58.4339 49.8024C45.6277 39.7731 31.7829 40.4008 21.9522 43.5271L19.589 44.2786L19.7983 41.8162Z" fill="#155B53"/>
</svg>
