<svg width="40" height="40" viewBox="0 0 40 40" fill="none" xmlns="http://www.w3.org/2000/svg">
<circle cx="20" cy="20" r="20" fill="#FBFAF7"/>
<path fill-rule="evenodd" clip-rule="evenodd" d="M16 10C16.5523 10 17 10.4477 17 11C17 12.6569 18.3431 14 20 14C21.6569 14 23 12.6569 23 11C23 10.4477 23.4477 10 24 10H26C27.1046 10 28 10.8955 28 12.0001V13C28 15.75 28.605 17.29 29.1495 18.1191C29.5654 18.7523 30 19.4785 30 20.2361V28C30 29.1046 29.1046 30 28 30H12C10.8954 30 10 29.1046 10 28V20.2361C10 19.4785 10.4346 18.7523 10.8505 18.1191C11.395 17.29 12 15.75 12 13V12.0001C12 10.8955 12.8954 10 14 10H16ZM21 19C21 18.4477 20.5523 18 20 18H19C18.4477 18 18 18.4477 18 19C18 19.5523 18.4477 20 19 20V24C18.4477 24 18 24.4477 18 25C18 25.5523 18.4477 26 19 26H21C21.5523 26 22 25.5523 22 25C22 24.4477 21.5523 24 21 24V19Z" fill="#94CF93"/>
</svg>
