<svg width="107" height="50" viewBox="0 0 107 50" fill="none" xmlns="http://www.w3.org/2000/svg">
<path d="M23.4938 13.324H27.9723V15.953H20.075V1.97172H23.4938V13.324Z" fill="black"/>
<path d="M31.3224 3.68452C30.7226 3.68452 30.2294 3.51192 29.8429 3.1667C29.4697 2.80821 29.2831 2.37004 29.2831 1.85222C29.2831 1.32111 29.4697 0.882948 29.8429 0.537731C30.2294 0.179236 30.7226 0 31.3224 0C31.9089 0 32.3887 0.179236 32.7619 0.537731C33.1484 0.882948 33.3417 1.32111 33.3417 1.85222C33.3417 2.37004 33.1484 2.80821 32.7619 3.1667C32.3887 3.51192 31.9089 3.68452 31.3224 3.68452ZM33.0218 4.83967V15.953H29.603V4.83967H33.0218Z" fill="black"/>
<path d="M42.2971 4.72017C43.6033 4.72017 44.643 5.14506 45.416 5.99483C46.2024 6.83131 46.5956 7.98645 46.5956 9.46026V15.953H43.1968V9.91834C43.1968 9.1748 43.0035 8.59722 42.617 8.18562C42.2305 7.77401 41.7106 7.56821 41.0575 7.56821C40.4044 7.56821 39.8846 7.77401 39.498 8.18562C39.1115 8.59722 38.9182 9.1748 38.9182 9.91834V15.953H35.4994V4.83967H38.9182V6.31347C39.2648 5.8222 39.7313 5.43716 40.3178 5.15833C40.9042 4.86622 41.564 4.72017 42.2971 4.72017Z" fill="black"/>
<path d="M48.2916 10.3963C48.2916 9.24119 48.5249 8.23209 48.9914 7.36905C49.4712 6.506 50.131 5.84214 50.9707 5.37742C51.8238 4.91271 52.7968 4.68034 53.8897 4.68034C55.2893 4.68034 56.4555 5.04546 57.3885 5.77573C58.3349 6.506 58.9547 7.53501 59.2479 8.86277H55.6091C55.3026 8.01301 54.7094 7.58812 53.8297 7.58812C53.2033 7.58812 52.7035 7.83376 52.3303 8.32503C51.957 8.80302 51.7704 9.49346 51.7704 10.3963C51.7704 11.2992 51.957 11.9963 52.3303 12.4876C52.7035 12.9655 53.2033 13.2045 53.8297 13.2045C54.7094 13.2045 55.3026 12.7797 55.6091 11.9299H59.2479C58.9547 13.2311 58.3349 14.2535 57.3885 14.997C56.4422 15.7406 55.2759 16.1123 53.8897 16.1123C52.7968 16.1123 51.8238 15.88 50.9707 15.4153C50.131 14.9505 49.4712 14.2867 48.9914 13.4236C48.5249 12.5606 48.2916 11.5515 48.2916 10.3963Z" fill="black"/>
<path d="M66.1549 16.1123C65.062 16.1123 64.0756 15.88 63.1959 15.4153C62.3296 14.9505 61.6431 14.2867 61.1366 13.4236C60.6435 12.5606 60.3969 11.5515 60.3969 10.3963C60.3969 9.25447 60.6501 8.252 61.1566 7.38896C61.6631 6.51264 62.3562 5.84214 63.2359 5.37742C64.1156 4.91271 65.102 4.68034 66.1949 4.68034C67.2879 4.68034 68.2742 4.91271 69.1539 5.37742C70.0336 5.84214 70.7267 6.51264 71.2332 7.38896C71.7397 8.252 71.993 9.25447 71.993 10.3963C71.993 11.5382 71.733 12.5473 71.2132 13.4236C70.7067 14.2867 70.007 14.9505 69.1139 15.4153C68.2342 15.88 67.2479 16.1123 66.1549 16.1123ZM66.1549 13.1647C66.808 13.1647 67.3612 12.9257 67.8144 12.4477C68.2809 11.9697 68.5141 11.2859 68.5141 10.3963C68.5141 9.50674 68.2875 8.82294 67.8344 8.34494C67.3945 7.86695 66.848 7.62796 66.1949 7.62796C65.5285 7.62796 64.9753 7.86695 64.5355 8.34494C64.0956 8.80966 63.8757 9.49346 63.8757 10.3963C63.8757 11.2859 64.089 11.9697 64.5155 12.4477C64.9553 12.9257 65.5018 13.1647 66.1549 13.1647Z" fill="black"/>
<path d="M77.2256 1.21488V15.953H73.8067V1.21488H77.2256Z" fill="black"/>
<path d="M86.5008 4.72017C87.8071 4.72017 88.8467 5.14506 89.6198 5.99483C90.4062 6.83131 90.7994 7.98645 90.7994 9.46026V15.953H87.4005V9.91834C87.4005 9.1748 87.2073 8.59722 86.8207 8.18562C86.4342 7.77401 85.9144 7.56821 85.2613 7.56821C84.6082 7.56821 84.0883 7.77401 83.7018 8.18562C83.3153 8.59722 83.122 9.1748 83.122 9.91834V15.953H79.7032V4.83967H83.122V6.31347C83.4685 5.8222 83.935 5.43716 84.5215 5.15833C85.108 4.86622 85.7678 4.72017 86.5008 4.72017Z" fill="black"/>
<path d="M53.4299 34.8076C52.4569 34.8076 51.5905 34.6416 50.8308 34.3097C50.071 33.9777 49.4712 33.5263 49.0314 32.9554C48.5915 32.3712 48.3449 31.7206 48.2916 31.0036H51.6705C51.7105 31.3886 51.8904 31.7006 52.2103 31.9396C52.5302 32.1786 52.9234 32.2981 53.3899 32.2981C53.8164 32.2981 54.143 32.2185 54.3696 32.0591C54.6095 31.8865 54.7294 31.6674 54.7294 31.4019C54.7294 31.0832 54.5628 30.8509 54.2296 30.7048C53.8964 30.5455 53.3566 30.3729 52.6102 30.187C51.8104 30.0011 51.144 29.8086 50.6108 29.6094C50.0777 29.397 49.6178 29.0717 49.2313 28.6335C48.8448 28.1821 48.6515 27.578 48.6515 26.8211C48.6515 26.1838 48.8248 25.6062 49.1713 25.0884C49.5312 24.5573 50.051 24.1391 50.7308 23.8337C51.4239 23.5283 52.2436 23.3756 53.19 23.3756C54.5895 23.3756 55.6891 23.7208 56.4888 24.4113C57.3019 25.1017 57.7684 26.0178 57.8884 27.1597H54.7294C54.6761 26.7747 54.5029 26.4693 54.2096 26.2435C53.9297 26.0178 53.5565 25.905 53.09 25.905C52.6901 25.905 52.3836 25.9846 52.1703 26.144C51.9571 26.29 51.8504 26.4958 51.8504 26.7614C51.8504 27.08 52.017 27.319 52.3502 27.4784C52.6968 27.6377 53.2299 27.797 53.9497 27.9564C54.7761 28.1688 55.4492 28.3812 55.969 28.5937C56.4888 28.7929 56.942 29.1248 57.3286 29.5895C57.7284 30.0409 57.935 30.6517 57.9483 31.4218C57.9483 32.0724 57.7617 32.6566 57.3885 33.1745C57.0287 33.679 56.5022 34.0773 55.8091 34.3694C55.1293 34.6615 54.3362 34.8076 53.4299 34.8076Z" fill="black"/>
<path d="M66.2579 31.7604V34.6483H64.5185C63.2789 34.6483 62.3125 34.3495 61.6194 33.752C60.9263 33.1413 60.5798 32.1521 60.5798 30.7845V26.363H59.2203V23.5349H60.5798V20.8263H63.9986V23.5349H66.2379V26.363H63.9986V30.8243C63.9986 31.1563 64.0786 31.3953 64.2386 31.5413C64.3985 31.6874 64.6651 31.7604 65.0383 31.7604H66.2579Z" fill="black"/>
<path d="M79.1785 23.5349V34.6483H75.7597V33.1346C75.4131 33.6259 74.9399 34.0242 74.3401 34.3296C73.7537 34.6217 73.1005 34.7678 72.3808 34.7678C71.5277 34.7678 70.7747 34.5819 70.1216 34.2101C69.4684 33.825 68.962 33.274 68.6021 32.557C68.2422 31.8401 68.0623 30.9969 68.0623 30.0277V23.5349H71.4611V29.5696C71.4611 30.3131 71.6544 30.8907 72.0409 31.3023C72.4274 31.7139 72.9473 31.9197 73.6004 31.9197C74.2668 31.9197 74.7933 31.7139 75.1798 31.3023C75.5664 30.8907 75.7597 30.3131 75.7597 29.5696V23.5349H79.1785Z" fill="black"/>
<path d="M80.9544 29.0717C80.9544 27.9298 81.1677 26.9273 81.5942 26.0643C82.0341 25.2013 82.6272 24.5374 83.3736 24.0727C84.12 23.608 84.9531 23.3756 85.8728 23.3756C86.6059 23.3756 87.2723 23.5283 87.8721 23.8337C88.4852 24.1391 88.9651 24.5507 89.3116 25.0685V19.9101H92.7304V34.6483H89.3116V33.055C88.9917 33.5861 88.5319 34.0109 87.9321 34.3296C87.3456 34.6483 86.6592 34.8076 85.8728 34.8076C84.9531 34.8076 84.12 34.5752 83.3736 34.1105C82.6272 33.6325 82.0341 32.962 81.5942 32.099C81.1677 31.2227 80.9544 30.2135 80.9544 29.0717ZM89.3116 29.0916C89.3116 28.2418 89.0717 27.5713 88.5919 27.08C88.1253 26.5888 87.5522 26.3431 86.8724 26.3431C86.1927 26.3431 85.6129 26.5888 85.133 27.08C84.6665 27.558 84.4333 28.2219 84.4333 29.0717C84.4333 29.9214 84.6665 30.5986 85.133 31.1031C85.6129 31.5944 86.1927 31.8401 86.8724 31.8401C87.5522 31.8401 88.1253 31.5944 88.5919 31.1031C89.0717 30.6119 89.3116 29.9414 89.3116 29.0916Z" fill="black"/>
<path d="M106.6 23.5349L99.6023 39.9261H95.9236L98.4827 34.2698L93.9443 23.5349H97.763L100.342 30.4857L102.901 23.5349H106.6Z" fill="black"/>
<path fill-rule="evenodd" clip-rule="evenodd" d="M20.7148 38.6573C21.9802 23.7728 11.2752 16.1079 4.14547 11.7449L5.87921 8.93336C12.7195 13.1192 24.2916 21.1458 24.1294 36.5701C33.739 34.0731 46.6229 34.2001 58.5794 43.5638L56.5322 46.1579C44.7166 36.9044 31.9442 37.4821 22.8687 40.3682L20.5055 41.1198L20.7148 38.6573Z" fill="#F4E6D7"/>
<path fill-rule="evenodd" clip-rule="evenodd" d="M19.0979 41.8162C20.4717 25.6557 8.84166 17.3385 1.13888 12.6248L2.87262 9.81325C10.2841 14.3486 22.7816 23.0268 22.5188 39.7226C32.8866 36.9878 46.8378 37.0721 59.7806 47.2084L57.7335 49.8024C44.9273 39.7731 31.0825 40.4008 21.2518 43.5271L18.8885 44.2786L19.0979 41.8162Z" fill="#155B53"/>
</svg>
