<svg width="141.375977" height="135.617920" viewBox="0 0 141.376 135.618" fill="none" xmlns="http://www.w3.org/2000/svg" xmlns:xlink="http://www.w3.org/1999/xlink">
	<desc>
			Created with Pixso.
	</desc>
	<defs/>
	<path id="Change-Color" d="M115.21 0.69L6.71 14.8C3.64 15.2 1.38 17.88 1.51 20.97L8.68 89.5C8.75 91.17 9.52 92.73 10.79 93.81C12.07 94.89 13.74 95.38 15.4 95.17L124.63 81.26C127.87 80.85 130.18 77.9 129.81 74.65L121.93 5.89C121.74 4.31 120.92 2.86 119.66 1.89C118.4 0.91 116.79 0.48 115.21 0.69Z" fill="#FFDB60" fill-opacity="1.000000" fill-rule="evenodd"/>
	<path id="Border (Stroke)" d="M121.96 8.29C122.12 8.45 122.13 8.71 121.97 8.87L72.93 60.62L72.92 60.62C68.41 65.15 61.29 65.76 56.08 62.06L2.57 28.95C2.38 28.83 2.32 28.58 2.44 28.39C2.56 28.2 2.81 28.14 3 28.26L56.52 61.37C56.52 61.37 56.52 61.38 56.53 61.38C56.53 61.38 56.54 61.38 56.54 61.39C61.43 64.87 68.11 64.3 72.34 60.05C72.34 60.05 72.34 60.05 72.34 60.05L121.38 8.31C121.54 8.15 121.8 8.14 121.96 8.29Z" fill="#000001" fill-opacity="1.000000" fill-rule="evenodd"/>
	<path id="Path (Stroke)" d="M128.69 73.02C128.57 73.21 128.32 73.27 128.13 73.15L85.56 46.81C85.36 46.69 85.3 46.43 85.42 46.24C85.54 46.05 85.79 45.99 85.99 46.11L128.56 72.45C128.75 72.57 128.81 72.82 128.69 73.02Z" fill="#000001" fill-opacity="1.000000" fill-rule="evenodd"/>
	<path id="Path (Stroke)" d="M9.17 93.11C9 92.95 9 92.7 9.15 92.53L45 54.72C45.16 54.55 45.41 54.55 45.58 54.7C45.74 54.86 45.75 55.11 45.59 55.28L9.75 93.09C9.59 93.26 9.33 93.26 9.17 93.11Z" fill="#000001" fill-opacity="1.000000" fill-rule="evenodd"/>
	<path id="White" d="M79.76 67.58L83.79 115.38C83.9 116.61 84.63 117.7 85.73 118.26C86.83 118.82 88.13 118.78 89.19 118.15L101.29 110.92L113.99 130.82C115.14 132.62 117.53 133.16 119.34 132.03L127.13 127.15C128.02 126.59 128.65 125.69 128.87 124.65C129.09 123.62 128.87 122.54 128.28 121.66L114.22 100.98L126.84 92.64C127.72 92.06 128.23 91.05 128.18 90C128.13 88.94 127.53 87.99 126.6 87.49L84.08 64.74C83.14 64.23 81.98 64.28 81.08 64.87C80.18 65.46 79.67 66.5 79.76 67.58Z" fill="#FFFFFF" fill-opacity="1.000000" fill-rule="evenodd"/>
	<path id="Border (Stroke)" d="M84.28 64.38L126.79 87.13C127.85 87.7 128.53 88.78 128.59 89.98C128.65 91.18 128.07 92.32 127.06 92.98L114.79 101.1L128.61 121.43C129.27 122.4 129.51 123.59 129.27 124.74C129.03 125.88 128.33 126.88 127.34 127.5L119.56 132.37C117.55 133.62 114.92 133.03 113.65 131.04L101.16 111.47L89.4 118.5C88.22 119.2 86.76 119.25 85.54 118.63C84.32 118 83.5 116.79 83.39 115.42L79.36 67.61C79.25 66.39 79.83 65.21 80.86 64.53C81.88 63.86 83.2 63.8 84.28 64.38ZM83.89 65.1C83.07 64.66 82.08 64.71 81.3 65.21C80.53 65.72 80.09 66.62 80.17 67.54L84.2 115.35C84.29 116.44 84.94 117.4 85.91 117.9C86.89 118.4 88.05 118.36 88.98 117.8L101.08 110.57C101.27 110.45 101.51 110.51 101.63 110.7L114.33 130.6C115.36 132.21 117.5 132.69 119.12 131.68L126.91 126.8C127.71 126.3 128.27 125.49 128.47 124.57C128.66 123.64 128.47 122.68 127.94 121.89L113.88 101.21C113.82 101.12 113.79 101.01 113.81 100.9C113.84 100.8 113.9 100.7 113.99 100.64L126.61 92.3C127.38 91.8 127.82 90.93 127.77 90.02C127.73 89.11 127.21 88.28 126.41 87.85L83.89 65.1Z" fill="#000001" fill-opacity="1.000000" fill-rule="evenodd"/>
</svg>
