<svg width="24.000000" height="24.000000" viewBox="0 0 24 24" fill="none" xmlns="http://www.w3.org/2000/svg" xmlns:xlink="http://www.w3.org/1999/xlink">
	<desc>
			Created with Pixso.
	</desc>
	<defs>
		<clipPath id="clip3_9224">
			<rect id="Bold / Essentional, UI / Info Circle" width="24.000000" height="24.000000" fill="white" fill-opacity="0"/>
		</clipPath>
	</defs>
	<g clip-path="url(#clip3_9224)">
		<path id="Vector" d="M22 12C22 17.52 17.52 22 12 22C6.47 22 2 17.52 2 12C2 6.47 6.47 2 12 2C17.52 2 22 6.47 22 12ZM12 17.75C12.41 17.75 12.75 17.41 12.75 17L12.75 11C12.75 10.58 12.41 10.25 12 10.25C11.58 10.25 11.25 10.58 11.25 11L11.25 17C11.25 17.41 11.58 17.75 12 17.75ZM12 7C12.55 7 13 7.44 13 8C13 8.55 12.55 9 12 9C11.44 9 11 8.55 11 8C11 7.44 11.44 7 12 7Z" fill="#FFFFFF" fill-opacity="1.000000" fill-rule="evenodd"/>
	</g>
</svg>
