<svg width="24.000000" height="24.000000" viewBox="0 0 24 24" fill="none" xmlns="http://www.w3.org/2000/svg" xmlns:xlink="http://www.w3.org/1999/xlink">
	<desc>
			Created with Pixso.
	</desc>
	<defs>
		<clipPath id="clip10_53199">
			<rect id="icons/Close Square/Filled" width="24.000000" height="24.000000" fill="white" fill-opacity="0"/>
		</clipPath>
	</defs>
	<g clip-path="url(#clip10_53199)">
		<path id="Shape" d="M2.36 6.54C2.65 4.34 4.34 2.65 6.54 2.36C8.05 2.16 9.94 2 12 2C14.05 2 15.94 2.16 17.45 2.36C19.65 2.65 21.34 4.34 21.63 6.54C21.83 8.05 22 9.94 22 12C22 14.05 21.83 15.94 21.63 17.45C21.34 19.65 19.65 21.34 17.45 21.63C15.94 21.83 14.05 22 12 22C9.94 22 8.05 21.83 6.54 21.63C4.34 21.34 2.65 19.65 2.36 17.45C2.16 15.94 2 14.05 2 12C2 9.94 2.16 8.05 2.36 6.54ZM9.7 8.29C9.31 7.9 8.68 7.9 8.29 8.29C7.9 8.68 7.9 9.31 8.29 9.7L10.58 12L8.29 14.29C7.9 14.68 7.9 15.31 8.29 15.7C8.68 16.09 9.31 16.09 9.7 15.7L12 13.41L14.29 15.7C14.68 16.09 15.31 16.09 15.7 15.7C16.09 15.31 16.09 14.68 15.7 14.29L13.41 12L15.7 9.7C16.09 9.31 16.09 8.68 15.7 8.29C15.31 7.9 14.68 7.9 14.29 8.29L12 10.58L9.7 8.29Z" fill="#ABACBE" fill-opacity="1.000000" fill-rule="evenodd"/>
	</g>
</svg>
