<svg width="20.000000" height="20.000000" viewBox="0 0 20 20" fill="none" xmlns="http://www.w3.org/2000/svg" xmlns:xlink="http://www.w3.org/1999/xlink">
	<desc>
			Created with Pixso.
	</desc>
	<defs>
		<clipPath id="clip7_2453">
			<rect id="icons/File Cross/Filled" width="20.000000" height="20.000000" fill="white" fill-opacity="0"/>
		</clipPath>
	</defs>
	<g clip-path="url(#clip7_2453)">
		<path id="Shape" d="M11.66 1.66C11.66 1.2 11.29 0.83 10.83 0.83L5 0.83C3.61 0.83 2.5 1.95 2.5 3.33L2.5 16.66C2.5 18.04 3.61 19.16 5 19.16L15 19.16C16.38 19.16 17.5 18.04 17.5 16.66L17.5 7.5C17.5 7.03 17.12 6.66 16.66 6.66L14.16 6.66C12.78 6.66 11.66 5.54 11.66 4.16L11.66 1.66ZM6.91 8.57C7.23 8.25 7.76 8.25 8.08 8.57L10 10.48L11.91 8.57C12.23 8.25 12.76 8.25 13.08 8.57C13.41 8.9 13.41 9.43 13.08 9.75L11.17 11.66L13.08 13.57C13.41 13.9 13.41 14.43 13.08 14.75C12.76 15.08 12.23 15.08 11.91 14.75L10 12.84L8.08 14.75C7.76 15.08 7.23 15.08 6.91 14.75C6.58 14.43 6.58 13.9 6.91 13.57L8.82 11.66L6.91 9.75C6.58 9.43 6.58 8.9 6.91 8.57Z" fill="#D50E0E" fill-opacity="1.000000" fill-rule="evenodd"/>
		<path id="Shape" d="M14.14 0.98C13.72 0.8 13.33 1.2 13.33 1.66L13.33 4.16C13.33 4.62 13.7 5 14.16 5L16.66 5C17.12 5 17.52 4.6 17.35 4.18C17.27 4 17.16 3.83 17.01 3.67L14.65 1.32C14.5 1.16 14.33 1.05 14.14 0.98Z" fill="#D50E0E" fill-opacity="1.000000" fill-rule="nonzero"/>
	</g>
</svg>
