<svg width="9.579224" height="9.579224" viewBox="0 0 9.57922 9.57922" fill="none" xmlns="http://www.w3.org/2000/svg" xmlns:xlink="http://www.w3.org/1999/xlink">
	<desc>
			Created with Pixso.
	</desc>
	<defs/>
	<path id="Union" d="M1.02673 0.178223L4.79211 3.94348L8.55737 0.178223C8.79504 -0.0594482 9.16833 -0.0594482 9.40588 0.178223C9.64355 0.415771 9.64355 0.789185 9.40588 1.02673L5.64062 4.79211L9.40588 8.55737C9.64355 8.79504 9.64355 9.16833 9.40588 9.40588C9.16833 9.64355 8.79504 9.64355 8.55737 9.40588L4.79211 5.64062L1.02673 9.40588C0.789185 9.64355 0.415771 9.64355 0.178223 9.40588C-0.0594482 9.16833 -0.0594482 8.79504 0.178223 8.55737L3.94348 4.79211L0.178223 1.02673C-0.0594482 0.789185 -0.0594482 0.415771 0.178223 0.178223C0.415771 -0.0594482 0.789185 -0.0594482 1.02673 0.178223Z" clip-rule="evenodd" fill="#808192" fill-opacity="1.000000" fill-rule="evenodd"/>
</svg>
