<svg width="12.000000" height="12.000000" viewBox="0 0 12 12" fill="none" xmlns="http://www.w3.org/2000/svg" xmlns:xlink="http://www.w3.org/1999/xlink">
	<desc>
			Created with Pixso.
	</desc>
	<defs/>
	<rect id="Union" width="12.000000" height="12.000000" fill="#FFFFFF" fill-opacity="0"/>
	<path id="Union" d="M3.51 2.25C3.16 1.91 2.6 1.91 2.25 2.25C1.91 2.6 1.91 3.16 2.25 3.51L4.74 6L2.25 8.48C1.91 8.83 1.91 9.39 2.25 9.74C2.6 10.08 3.16 10.08 3.51 9.74L6 7.25L8.48 9.74C8.83 10.08 9.39 10.08 9.74 9.74C10.08 9.39 10.08 8.83 9.74 8.48L7.25 6L9.74 3.51C10.08 3.16 10.08 2.6 9.74 2.25C9.39 1.91 8.83 1.91 8.48 2.25L6 4.74L3.51 2.25Z" fill="#29A261" fill-opacity="1.000000" fill-rule="evenodd"/>
</svg>
