<svg width="24.000000" height="24.000000" viewBox="0 0 24 24" fill="none" xmlns="http://www.w3.org/2000/svg" xmlns:xlink="http://www.w3.org/1999/xlink">
	<desc>
			Created with Pixso.
	</desc>
	<defs/>
	<path id="Union" d="M8.02441 7.17578L11.7896 10.9412L15.5552 7.17578C15.7925 6.93823 16.166 6.93823 16.4033 7.17578C16.6411 7.41333 16.6411 7.78662 16.4033 8.02417L12.6382 11.7896L16.4033 15.5549C16.6411 15.7925 16.6411 16.166 16.4033 16.4036C16.166 16.6411 15.7925 16.6411 15.5552 16.4036L11.7896 12.6382L8.02441 16.4036C7.78662 16.6411 7.41357 16.6411 7.17578 16.4036C6.93799 16.166 6.93799 15.7925 7.17578 15.5549L10.9409 11.7896L7.17578 8.02417C6.93799 7.78662 6.93799 7.41333 7.17578 7.17578C7.41357 6.93823 7.78662 6.93823 8.02441 7.17578Z" clip-rule="evenodd" fill="#D50E0E" fill-opacity="1.000000" fill-rule="evenodd"/>
</svg>
