<svg width="48.000000" height="40.000000" viewBox="0 0 48 40" fill="none" xmlns="http://www.w3.org/2000/svg" xmlns:xlink="http://www.w3.org/1999/xlink">
	<desc>
			Created with Pixso.
	</desc>
	<defs/>
	<g opacity="0.000000"/>
	<path id="Exclude" d="M28 13.4012L33 13.4012C33.2651 13.4012 33.5195 13.5171 33.707 13.7234C33.8945 13.9297 34 14.2095 34 14.5011C34 14.7928 33.8945 15.0726 33.707 15.2789C33.5195 15.4852 33.2651 15.6011 33 15.6011L32 15.6011L32 27.7002C32 28.5754 31.6841 29.4147 31.1211 30.0336C30.5586 30.6523 29.7954 31 29 31L19 31C18.2046 31 17.4414 30.6523 16.8789 30.0336C16.3159 29.4147 16 28.5754 16 27.7002L16 15.6011L15 15.6011C14.7349 15.6011 14.4805 15.4852 14.293 15.2789C14.1055 15.0726 14 14.7928 14 14.5011C14 14.2095 14.1055 13.9297 14.293 13.7234C14.4805 13.5171 14.7349 13.4012 15 13.4012L20 13.4012L20 11.5643C20.0234 10.8602 20.2998 10.1949 20.7686 9.7146C21.2373 9.23413 21.8599 8.97778 22.5 9.00146L25.5 9.00146C26.1401 8.97778 26.7627 9.23413 27.2314 9.7146C27.7002 10.1949 27.9766 10.8602 28 11.5643L28 13.4012ZM22.5 11.2014C22.21 11.2014 22 11.3883 22 11.5643L22 13.4012L26 13.4012L26 11.5643C26 11.3883 25.79 11.2014 25.5 11.2014L22.5 11.2014ZM22 27L22 18C22 17.4399 21.5601 17 21 17C20.4399 17 20 17.4399 20 18L20 27C20 27.5601 20.4399 28 21 28C21.5601 28 22 27.5601 22 27ZM28 18L28 27C28 27.5601 27.5601 28 27 28C26.4399 28 26 27.5601 26 27L26 18C26 17.4399 26.4399 17 27 17C27.5601 17 28 17.4399 28 18Z" clip-rule="evenodd" fill="#D50E0E" fill-opacity="1.000000" fill-rule="evenodd"/>
</svg>
