<svg width="24.000000" height="24.000000" viewBox="0 0 24 24" fill="none" xmlns="http://www.w3.org/2000/svg" xmlns:xlink="http://www.w3.org/1999/xlink">
	<desc>
			Created with Pixso.
	</desc>
	<defs>
		<clipPath id="clip10_53200">
			<rect id="icons/Flag/Filled" width="24.000000" height="24.000000" fill="white" fill-opacity="0"/>
		</clipPath>
	</defs>
	<g clip-path="url(#clip10_53200)">
		<path id="Shape" d="M4 16L4 9L4 2L18.73 2C20.02 2 20.71 3.5 19.87 4.47L16 9L19.87 13.52C20.71 14.49 20.02 16 18.73 16L4 16Z" fill="#ABACBE" fill-opacity="1.000000" fill-rule="nonzero"/>
		<path id="Shape" d="M4 1C4 0.44 4.44 0 5 0C5.55 0 6 0.44 6 1L6 23C6 23.55 5.55 24 5 24C4.44 24 4 23.55 4 23L4 1Z" fill="#ABACBE" fill-opacity="1.000000" fill-rule="nonzero"/>
	</g>
</svg>
