<svg width="24.000000" height="24.000000" viewBox="0 0 24 24" fill="none" xmlns="http://www.w3.org/2000/svg" xmlns:xlink="http://www.w3.org/1999/xlink">
	<desc>
			Created with Pixso.
	</desc>
	<defs>
		<clipPath id="clip10_53391">
			<rect id="icons/File Document/Filled" width="24.000000" height="24.000000" fill="white" fill-opacity="0"/>
		</clipPath>
	</defs>
	<g clip-path="url(#clip10_53391)">
		<path id="Shape" d="M14 2C14 1.44 13.55 1 13 1L6 1C4.34 1 3 2.34 3 4L3 20C3 21.65 4.34 23 6 23L18 23C19.65 23 21 21.65 21 20L21 9C21 8.44 20.55 8 20 8L17 8C15.34 8 14 6.65 14 5L14 2ZM8 13C8 12.44 8.44 12 9 12L15 12C15.55 12 16 12.44 16 13C16 13.55 15.55 14 15 14L9 14C8.44 14 8 13.55 8 13ZM8 17C8 16.44 8.44 16 9 16L12 16C12.55 16 13 16.44 13 17C13 17.55 12.55 18 12 18L9 18C8.44 18 8 17.55 8 17Z" fill="#29A261" fill-opacity="1.000000" fill-rule="evenodd"/>
		<path id="Shape" d="M16.97 1.17C16.46 0.96 16 1.44 16 2L16 5C16 5.55 16.44 6 17 6L20 6C20.55 6 21.03 5.53 20.82 5.02C20.73 4.8 20.59 4.59 20.41 4.41L17.58 1.58C17.4 1.4 17.19 1.27 16.97 1.17Z" fill="#29A261" fill-opacity="1.000000" fill-rule="nonzero"/>
	</g>
</svg>
