<svg width="24.000000" height="24.000000" viewBox="0 0 24 24" fill="none" xmlns="http://www.w3.org/2000/svg" xmlns:xlink="http://www.w3.org/1999/xlink">
	<desc>
			Created with Pixso.
	</desc>
	<defs>
		<clipPath id="clip3_9210">
			<rect id="icons/Cabinet Files/Filled" width="24.000000" height="24.000000" fill="white" fill-opacity="0"/>
		</clipPath>
	</defs>
	<g clip-path="url(#clip3_9210)">
		<path id="Shape" d="M21 13C21.55 13 22 13.44 22 14L22 19C22 20.65 20.65 22 19 22L5 22C3.34 22 2 20.65 2 19L2 14C2 13.44 2.44 13 3 13L21 13ZM10 16C9.44 16 9 16.44 9 17C9 17.55 9.44 18 10 18L14 18C14.55 18 15 17.55 15 17C15 16.44 14.55 16 14 16L10 16Z" fill="#FFFFFF" fill-opacity="1.000000" fill-rule="evenodd"/>
		<path id="Shape" d="M2 5C2 3.34 3.34 2 5 2L19 2C20.65 2 22 3.34 22 5L22 10C22 10.55 21.55 11 21 11L3 11C2.44 11 2 10.55 2 10L2 5ZM10 5C9.44 5 9 5.44 9 6C9 6.55 9.44 7 10 7L14 7C14.55 7 15 6.55 15 6C15 5.44 14.55 5 14 5L10 5Z" fill="#FFFFFF" fill-opacity="1.000000" fill-rule="evenodd"/>
	</g>
</svg>
