<svg width="32" height="33" viewBox="0 0 32 33" fill="none" xmlns="http://www.w3.org/2000/svg">
<path fill-rule="evenodd" clip-rule="evenodd" d="M18.6667 3.16671C18.6667 2.43033 18.0697 1.83337 17.3333 1.83337H8C5.79086 1.83337 4 3.62423 4 5.83337V27.1667C4 29.3758 5.79086 31.1667 8 31.1667H24C26.2091 31.1667 28 29.3758 28 27.1667V12.5C28 11.7637 27.403 11.1667 26.6667 11.1667H22.6667C20.4575 11.1667 18.6667 9.37585 18.6667 7.16671V3.16671ZM20.9428 17.4428C21.4635 16.9221 21.4635 16.0779 20.9428 15.5572C20.4221 15.0365 19.5779 15.0365 19.0572 15.5572L14.6667 19.9478L12.9428 18.2239C12.4221 17.7032 11.5779 17.7032 11.0572 18.2239C10.5365 18.7446 10.5365 19.5888 11.0572 20.1095L13.7239 22.7762C14.2446 23.2969 15.0888 23.2969 15.6095 22.7762L20.9428 17.4428Z" fill="white"/>
<path d="M22.6367 2.07013C21.9576 1.78536 21.3335 2.4304 21.3335 3.16678V7.16678C21.3335 7.90316 21.9305 8.50011 22.6668 8.50011H26.6668C27.4032 8.50011 28.0482 7.87596 27.7635 7.19687C27.6402 6.90287 27.463 6.62966 27.2191 6.38573L23.4479 2.61449C23.204 2.37056 22.9307 2.19342 22.6367 2.07013Z" fill="white"/>
</svg>
