<svg width="32.000000" height="32.000000" viewBox="0 0 32 32" fill="none" xmlns="http://www.w3.org/2000/svg" xmlns:xlink="http://www.w3.org/1999/xlink">
	<desc>
			Created with Pixso.
	</desc>
	<defs>
		<clipPath id="clip203_10887">
			<rect id="icons/File Cross/Filled" width="32.000000" height="32.000000" fill="white" fill-opacity="0"/>
		</clipPath>
	</defs>
	<g clip-path="url(#clip203_10887)">
		<path id="Shape" d="M18.66 2.66C18.66 1.93 18.06 1.33 17.33 1.33L8 1.33C5.79 1.33 4 3.12 4 5.33L4 26.66C4 28.87 5.79 30.66 8 30.66L24 30.66C26.2 30.66 28 28.87 28 26.66L28 12C28 11.26 27.4 10.66 26.66 10.66L22.66 10.66C20.45 10.66 18.66 8.87 18.66 6.66L18.66 2.66ZM11.05 13.72C11.57 13.2 12.42 13.2 12.94 13.72L16 16.78L19.05 13.72C19.57 13.2 20.42 13.2 20.94 13.72C21.46 14.24 21.46 15.08 20.94 15.6L17.88 18.66L20.94 21.72C21.46 22.24 21.46 23.08 20.94 23.6C20.42 24.13 19.57 24.13 19.05 23.6L16 20.55L12.94 23.6C12.42 24.13 11.57 24.13 11.05 23.6C10.53 23.08 10.53 22.24 11.05 21.72L14.11 18.66L11.05 15.6C10.53 15.08 10.53 14.24 11.05 13.72Z" fill="#FFFFFF" fill-opacity="1.000000" fill-rule="evenodd"/>
		<path id="Shape" d="M22.63 1.57C21.95 1.28 21.33 1.93 21.33 2.66L21.33 6.66C21.33 7.4 21.92 8 22.66 8L26.66 8C27.4 8 28.04 7.37 27.76 6.69C27.63 6.4 27.46 6.12 27.21 5.88L23.44 2.11C23.2 1.87 22.93 1.69 22.63 1.57Z" fill="#FFFFFF" fill-opacity="1.000000" fill-rule="nonzero"/>
	</g>
</svg>
