<svg width="24.000000" height="24.000000" viewBox="0 0 24 24" fill="none" xmlns="http://www.w3.org/2000/svg" xmlns:xlink="http://www.w3.org/1999/xlink">
	<desc>
			Created with Pixso.
	</desc>
	<defs>
		<clipPath id="clip10_53201">
			<rect id="icons/Cup/Filled" width="24.000000" height="24.000000" fill="white" fill-opacity="0"/>
		</clipPath>
	</defs>
	<g clip-path="url(#clip10_53201)">
		<path id="Shape" d="M12 17C11.44 17 11 17.44 11 18L11 19L9 19C8.44 19 8 19.44 8 20C8 20.55 8.44 21 9 21L15 21C15.55 21 16 20.55 16 20C16 19.44 15.55 19 15 19L13 19L13 18C13 17.44 12.55 17 12 17Z" fill="#ABACBE" fill-opacity="1.000000" fill-rule="nonzero"/>
		<path id="Shape" d="M7 5C7 3.89 7.89 3 9 3L15 3C16.1 3 17 3.89 17 5L17 10C17 12.76 14.76 15 12 15C9.23 15 7 12.76 7 10L7 5Z" fill="#ABACBE" fill-opacity="1.000000" fill-rule="evenodd"/>
		<path id="Shape" d="M1 8C1 6.34 2.34 5 4 5C4.55 5 5 5.44 5 6C5 6.55 4.55 7 4 7C3.44 7 3 7.44 3 8L3 9C3 9.55 3.44 10 4 10C4.55 10 5 10.44 5 11C5 11.55 4.55 12 4 12C2.34 12 1 10.65 1 9L1 8ZM23 8C23 6.34 21.65 5 20 5C19.44 5 19 5.44 19 6C19 6.55 19.44 7 20 7C20.55 7 21 7.44 21 8L21 9C21 9.55 20.55 10 20 10C19.44 10 19 10.44 19 11C19 11.55 19.44 12 20 12C21.65 12 23 10.65 23 9L23 8Z" fill="#ABACBE" fill-opacity="1.000000" fill-rule="evenodd"/>
	</g>
</svg>
