<svg width="16.000000" height="16.000000" viewBox="0 0 16 16" fill="none" xmlns="http://www.w3.org/2000/svg" xmlns:xlink="http://www.w3.org/1999/xlink">
	<desc>
			Created with Pixso.
	</desc>
	<defs>
		<clipPath id="clip7_5544">
			<rect id="icons/Search/Line" width="16.000000" height="16.000000" fill="white" fill-opacity="0"/>
		</clipPath>
	</defs>
	<g clip-path="url(#clip7_5544)">
		<path id="Shape" d="M9.93 10.87C9.03 11.58 7.89 12 6.66 12C3.72 12 1.33 9.61 1.33 6.66C1.33 3.72 3.72 1.33 6.66 1.33C9.61 1.33 12 3.72 12 6.66C12 7.89 11.58 9.03 10.87 9.93L14.47 13.52C14.73 13.78 14.73 14.21 14.47 14.47C14.21 14.73 13.78 14.73 13.52 14.47L9.93 10.87ZM10.66 6.66C10.66 8.87 8.87 10.66 6.66 10.66C4.45 10.66 2.66 8.87 2.66 6.66C2.66 4.45 4.45 2.66 6.66 2.66C8.87 2.66 10.66 4.45 10.66 6.66Z" fill="#FFFFFF" fill-opacity="1.000000" fill-rule="evenodd"/>
	</g>
</svg>
