<svg width="24.000000" height="24.000000" viewBox="0 0 24 24" fill="none" xmlns="http://www.w3.org/2000/svg" xmlns:xlink="http://www.w3.org/1999/xlink">
	<desc>
			Created with Pixso.
	</desc>
	<defs>
		<clipPath id="clip11_4191">
			<rect id="icons/Arrow Down 2/Line" width="24.000000" height="24.000000" fill="white" fill-opacity="0"/>
		</clipPath>
	</defs>
	<g clip-path="url(#clip11_4191)">
		<path id="Vector" d="M19.67 8.49C20.08 8.87 20.1 9.5 19.73 9.9C19.36 10.31 18.72 10.34 18.32 9.96L16.5 8.28L16.5 18C16.5 18.55 16.05 19 15.5 19C14.94 19 14.5 18.55 14.5 18L14.5 8.28L12.67 9.96C12.27 10.34 11.63 10.31 11.26 9.9C10.89 9.5 10.91 8.87 11.32 8.49L14.82 5.26C15.2 4.91 15.79 4.91 16.17 5.26L19.67 8.49ZM11.67 15.5C12.08 15.12 12.1 14.49 11.73 14.09C11.36 13.68 10.72 13.65 10.32 14.03L8.5 15.71L8.5 6C8.5 5.44 8.05 5 7.5 5C6.94 5 6.5 5.44 6.5 6L6.5 15.71L4.67 14.03C4.27 13.65 3.63 13.68 3.26 14.09C2.89 14.49 2.91 15.12 3.32 15.5L6.82 18.73C7.2 19.08 7.79 19.08 8.17 18.73L11.67 15.5Z" fill="#94CF93" fill-opacity="1.000000" fill-rule="evenodd"/>
	</g>
</svg>
