<svg width="24.000000" height="24.000000" viewBox="0 0 24 24" fill="none" xmlns="http://www.w3.org/2000/svg" xmlns:xlink="http://www.w3.org/1999/xlink">
	<desc>
			Created with Pixso.
	</desc>
	<defs>
		<clipPath id="clip10_43385">
			<rect id="icons/File Download/Filled" width="24.000000" height="24.000000" fill="white" fill-opacity="0"/>
		</clipPath>
	</defs>
	<g clip-path="url(#clip10_43385)">
		<path id="Shape" d="M14 2C14 1.44 13.55 1 13 1L6 1C4.34 1 3 2.34 3 4L3 20C3 21.65 4.34 23 6 23L18 23C19.65 23 21 21.65 21 20L21 9C21 8.44 20.55 8 20 8L17 8C15.34 8 14 6.65 14 5L14 2ZM12.7 17.7C12.61 17.8 12.5 17.87 12.38 17.92C12.02 18.07 11.58 18 11.29 17.7L8.29 14.7C7.9 14.31 7.9 13.68 8.29 13.29C8.68 12.9 9.31 12.9 9.7 13.29L11 14.58L11 10C11 9.44 11.44 9 12 9C12.55 9 13 9.44 13 10L13 14.58L14.29 13.29C14.68 12.9 15.31 12.9 15.7 13.29C16.09 13.68 16.09 14.31 15.7 14.7L12.7 17.7Z" fill="#E3891E" fill-opacity="1.000000" fill-rule="evenodd"/>
		<path id="Shape" d="M16.97 1.17C16.46 0.96 16 1.44 16 2L16 5C16 5.55 16.44 6 17 6L20 6C20.55 6 21.03 5.53 20.82 5.02C20.73 4.8 20.59 4.59 20.41 4.41L17.58 1.58C17.4 1.4 17.19 1.27 16.97 1.17Z" fill="#E3891E" fill-opacity="1.000000" fill-rule="nonzero"/>
	</g>
</svg>
