<svg width="16.000000" height="16.000000" viewBox="0 0 16 16" fill="none" xmlns="http://www.w3.org/2000/svg" xmlns:xlink="http://www.w3.org/1999/xlink">
	<desc>
			Created with Pixso.
	</desc>
	<defs>
		<clipPath id="clip7_1998">
			<rect id="icons/Arrow Right 2/Line" width="16.000000" height="16.000000" fill="white" fill-opacity="0"/>
		</clipPath>
	</defs>
	<g clip-path="url(#clip7_1998)">
		<path id="vector (Stroke)" d="M6.2 11.76C5.85 12.09 5.31 12.07 4.99 11.71L2.22 8.6C1.92 8.26 1.92 7.73 2.22 7.39L4.99 4.28C5.31 3.92 5.85 3.9 6.2 4.23C6.55 4.56 6.57 5.13 6.25 5.49L4.81 7.11L13.14 7.11C13.61 7.11 14 7.5 14 8C14 8.49 13.61 8.88 13.14 8.88L4.81 8.88L6.25 10.5C6.57 10.86 6.55 11.43 6.2 11.76Z" fill="#23262F" fill-opacity="1.000000" fill-rule="evenodd"/>
	</g>
</svg>
