<svg width="24.000000" height="24.000000" viewBox="0 0 24 24" fill="none" xmlns="http://www.w3.org/2000/svg" xmlns:xlink="http://www.w3.org/1999/xlink">
	<desc>
			Created with Pixso.
	</desc>
	<defs>
		<clipPath id="clip5_1019">
			<rect id="icons/Arrow Right 2/Line" width="24.000000" height="24.000000" fill="white" fill-opacity="0"/>
		</clipPath>
	</defs>
	<g clip-path="url(#clip5_1019)">
		<path id="vector (Stroke)" d="M14.09 7.26C14.49 6.89 15.12 6.91 15.5 7.32L18.73 10.82C19.08 11.2 19.08 11.79 18.73 12.17L15.5 15.67C15.12 16.08 14.49 16.1 14.09 15.73C13.68 15.36 13.65 14.72 14.03 14.32L15.71 12.5L6 12.5C5.44 12.5 5 12.05 5 11.5C5 10.94 5.44 10.5 6 10.5L15.71 10.5L14.03 8.67C13.65 8.27 13.68 7.63 14.09 7.26Z" fill="#777E91" fill-opacity="1.000000" fill-rule="evenodd"/>
	</g>
</svg>
