<svg width="24.000000" height="24.000000" viewBox="0 0 24 24" fill="none" xmlns="http://www.w3.org/2000/svg" xmlns:xlink="http://www.w3.org/1999/xlink">
	<desc>
			Created with Pixso.
	</desc>
	<defs/>
	<path id="Vector" d="M15 7.5L7.19 15.44C6.93 15.72 6.79 16.1 6.8 16.48C6.81 16.87 6.96 17.23 7.24 17.5C7.51 17.78 7.88 17.93 8.26 17.94C8.65 17.95 9.02 17.81 9.3 17.55L18.61 8.11C19.13 7.54 19.41 6.8 19.39 6.03C19.37 5.26 19.06 4.52 18.51 3.98C17.97 3.43 17.23 3.12 16.46 3.1C15.7 3.08 14.95 3.36 14.38 3.88L5.07 13.32C4.22 14.16 3.75 15.3 3.75 16.5C3.75 17.69 4.22 18.83 5.07 19.67C5.91 20.52 7.05 20.99 8.25 20.99C9.44 20.99 10.58 20.52 11.42 19.67L19.12 12" stroke="#777E91" stroke-opacity="1.000000" stroke-width="1.500000" stroke-linejoin="round" stroke-linecap="round"/>
</svg>
