<svg width="20.000000" height="20.000000" viewBox="0 0 20 20" fill="none" xmlns="http://www.w3.org/2000/svg" xmlns:xlink="http://www.w3.org/1999/xlink">
	<desc>
			Created with Pixso.
	</desc>
	<defs/>
	<path id="Vector" d="M4.37 17.5C4.2 17.5 4.05 17.43 3.93 17.31C3.81 17.19 3.75 17.04 3.75 16.87L3.75 3.12C3.75 2.95 3.81 2.8 3.93 2.68C4.05 2.56 4.2 2.5 4.37 2.5L11.87 2.5L16.25 6.87L16.25 16.87C16.25 17.04 16.18 17.19 16.06 17.31C15.94 17.43 15.79 17.5 15.62 17.5L4.37 17.5Z" stroke="#29A361" stroke-opacity="1.000000" stroke-width="1.500000" stroke-linejoin="round"/>
	<path id="Vector" d="M11.87 2.5L11.87 6.87L16.25 6.87" stroke="#29A361" stroke-opacity="1.000000" stroke-width="1.500000" stroke-linejoin="round" stroke-linecap="round"/>
	<path id="Vector" d="M7.81 12.18L10 14.37L12.18 12.18" stroke="#29A361" stroke-opacity="1.000000" stroke-width="1.500000" stroke-linejoin="round" stroke-linecap="round"/>
	<path id="Vector" d="M10 9.37L15 9.37" stroke="#29A361" stroke-opacity="1.000000" stroke-width="1.500000" stroke-linejoin="round" stroke-linecap="round"/>
</svg>
