<svg width="24.000000" height="24.000000" viewBox="0 0 24 24" fill="none" xmlns="http://www.w3.org/2000/svg" xmlns:xlink="http://www.w3.org/1999/xlink">
	<desc>
			Created with Pixso.
	</desc>
	<defs/>
	<rect id="Subtract" width="24.000000" height="24.000000" fill="#FFFFFF" fill-opacity="0"/>
	<path id="Subtract" d="M12 24C18.62 24 24 18.62 24 12C24 5.37 18.62 0 12 0C5.37 0 0 5.37 0 12C0 18.62 5.37 24 12 24ZM15.74 6.09C14.92 5.36 13.83 5 12.48 5C11.55 5 10.74 5.17 10.05 5.51C9.37 5.86 8.86 6.34 8.5 6.95C8.15 7.57 7.98 8.27 8 9.05L10.58 9.05C10.58 8.48 10.74 8.04 11.07 7.72C11.41 7.4 11.88 7.24 12.48 7.24C13.05 7.24 13.5 7.41 13.83 7.74C14.16 8.07 14.33 8.52 14.33 9.09C14.33 9.87 14.03 10.4 13.41 10.7C12.8 10.99 11.93 11.14 10.79 11.14L9.91 11.14L10.01 14.41L12.42 14.41L12.5 12.93C13.85 12.93 14.94 12.6 15.76 11.95C16.58 11.28 17 10.32 17 9.07C17 7.8 16.58 6.81 15.74 6.09ZM9.97 18.55C10.3 18.85 10.71 19 11.2 19C11.69 19 12.08 18.85 12.4 18.55C12.71 18.25 12.87 17.87 12.87 17.42C12.87 16.97 12.71 16.6 12.4 16.31C12.08 16 11.69 15.85 11.2 15.85C10.71 15.85 10.3 16 9.97 16.31C9.66 16.6 9.5 16.97 9.5 17.42C9.5 17.87 9.66 18.25 9.97 18.55Z" fill="#FA9116" fill-opacity="1.000000" fill-rule="evenodd"/>
</svg>
