<svg width="20.000000" height="20.000000" viewBox="0 0 20 20" fill="none" xmlns="http://www.w3.org/2000/svg" xmlns:xlink="http://www.w3.org/1999/xlink">
	<desc>
			Created with Pixso.
	</desc>
	<defs>
		<clipPath id="clip2_1400">
			<rect id="Icons/Instagram/Line" width="20.000000" height="20.000000" fill="white" fill-opacity="0"/>
		</clipPath>
	</defs>
	<rect id="Icons/Instagram/Line" width="20.000000" height="20.000000" fill="#FFFFFF" fill-opacity="0"/>
	<g clip-path="url(#clip2_1400)">
		<path id="Vector" d="M13.33 3.33L6.66 3.33C4.82 3.33 3.33 4.82 3.33 6.66L3.33 13.33C3.33 15.17 4.82 16.66 6.66 16.66L13.33 16.66C15.17 16.66 16.66 15.17 16.66 13.33L16.66 6.66C16.66 4.82 15.17 3.33 13.33 3.33ZM6.66 1.66C3.9 1.66 1.66 3.9 1.66 6.66L1.66 13.33C1.66 16.09 3.9 18.33 6.66 18.33L13.33 18.33C16.09 18.33 18.33 16.09 18.33 13.33L18.33 6.66C18.33 3.9 16.09 1.66 13.33 1.66L6.66 1.66Z" fill="#FA9116" fill-opacity="1.000000" fill-rule="evenodd"/>
		<path id="Vector" d="M14.16 6.66C14.62 6.66 15 6.29 15 5.83C15 5.37 14.62 5 14.16 5C13.7 5 13.33 5.37 13.33 5.83C13.33 6.29 13.7 6.66 14.16 6.66Z" fill="#FA9116" fill-opacity="1.000000" fill-rule="nonzero"/>
		<path id="Vector" d="M14.16 10C14.16 12.3 12.3 14.16 10 14.16C7.69 14.16 5.83 12.3 5.83 10C5.83 7.69 7.69 5.83 10 5.83C12.3 5.83 14.16 7.69 14.16 10ZM12.5 10C12.5 11.38 11.38 12.5 10 12.5C8.61 12.5 7.5 11.38 7.5 10C7.5 8.61 8.61 7.5 10 7.5C11.38 7.5 12.5 8.61 12.5 10Z" fill="#FA9116" fill-opacity="1.000000" fill-rule="evenodd"/>
	</g>
</svg>
