<svg width="32.000000" height="32.000000" viewBox="0 0 32 32" fill="none" xmlns="http://www.w3.org/2000/svg" xmlns:xlink="http://www.w3.org/1999/xlink">
	<desc>
			Created with Pixso.
	</desc>
	<defs>
		<clipPath id="clip3_2975">
			<rect id="icons/Burger/Line" width="32.000000" height="32.000000" fill="white" fill-opacity="0"/>
		</clipPath>
	</defs>
	<g clip-path="url(#clip3_2975)">
		<path id="burger icon" d="M5.33 12C5.33 11.26 5.93 10.66 6.66 10.66L25.33 10.66C26.06 10.66 26.66 11.26 26.66 12C26.66 12.73 26.06 13.33 25.33 13.33L6.66 13.33C5.93 13.33 5.33 12.73 5.33 12ZM5.33 20C5.33 19.26 5.93 18.66 6.66 18.66L25.33 18.66C26.06 18.66 26.66 19.26 26.66 20C26.66 20.73 26.06 21.33 25.33 21.33L6.66 21.33C5.93 21.33 5.33 20.73 5.33 20Z" fill="#777E91" fill-opacity="1.000000" fill-rule="evenodd"/>
	</g>
</svg>
