<svg width="24.000000" height="24.000000" viewBox="0 0 24 24" fill="none" xmlns="http://www.w3.org/2000/svg" xmlns:xlink="http://www.w3.org/1999/xlink">
	<desc>
			Created with Pixso.
	</desc>
	<defs>
		<clipPath id="clip5_3771">
			<rect id="icons/List/Line" width="24.000000" height="24.000000" fill="white" fill-opacity="0"/>
		</clipPath>
	</defs>
	<g clip-path="url(#clip5_3771)">
		<path id="Shape" d="M7 3C4.79 3 3 4.79 3 7L3 19C3 21.2 4.79 23 7 23L17 23C19.2 23 21 21.2 21 19L21 7C21 4.79 19.2 3 17 3L17 5C18.1 5 19 5.89 19 7L19 19C19 20.1 18.1 21 17 21L7 21C5.89 21 5 20.1 5 19L5 7C5 5.89 5.89 5 7 5L7 3Z" fill="#FA9116" fill-opacity="1.000000" fill-rule="nonzero"/>
		<path id="Shape" d="M9 10C9 10.55 8.55 11 8 11C7.44 11 7 10.55 7 10C7 9.44 7.44 9 8 9C8.55 9 9 9.44 9 10ZM11 10C11 9.44 11.44 9 12 9L16 9C16.55 9 17 9.44 17 10C17 10.55 16.55 11 16 11L12 11C11.44 11 11 10.55 11 10ZM9 14C9 14.55 8.55 15 8 15C7.44 15 7 14.55 7 14C7 13.44 7.44 13 8 13C8.55 13 9 13.44 9 14ZM12 13C11.44 13 11 13.44 11 14C11 14.55 11.44 15 12 15L16 15C16.55 15 17 14.55 17 14C17 13.44 16.55 13 16 13L12 13ZM9 18C9 18.55 8.55 19 8 19C7.44 19 7 18.55 7 18C7 17.44 7.44 17 8 17C8.55 17 9 17.44 9 18ZM12 17C11.44 17 11 17.44 11 18C11 18.55 11.44 19 12 19L14 19C14.55 19 15 18.55 15 18C15 17.44 14.55 17 14 17L12 17Z" fill="#FA9116" fill-opacity="1.000000" fill-rule="evenodd"/>
		<path id="Shape" d="M15 3L9 3C8.44 3 8 3.44 8 4C8 4.55 8.44 5 9 5L15 5C15.55 5 16 4.55 16 4C16 3.44 15.55 3 15 3ZM9 1C7.34 1 6 2.34 6 4C6 5.65 7.34 7 9 7L15 7C16.65 7 18 5.65 18 4C18 2.34 16.65 1 15 1L9 1Z" fill="#FA9116" fill-opacity="1.000000" fill-rule="evenodd"/>
	</g>
</svg>
