<svg width="24.000000" height="24.000000" viewBox="0 0 24 24" fill="none" xmlns="http://www.w3.org/2000/svg" xmlns:xlink="http://www.w3.org/1999/xlink">
	<desc>
			Created with Pixso.
	</desc>
	<defs/>
	<path id="Vector" d="M3 6L10.5 6" stroke="#FCFCFD" stroke-opacity="1.000000" stroke-width="2.000000" stroke-linejoin="round" stroke-linecap="round"/>
	<path id="Vector" d="M5.08 20.24C5.83 19.09 6.85 18.15 8.06 17.49C9.27 16.84 10.62 16.5 11.99 16.5C13.37 16.5 14.72 16.84 15.93 17.49C17.14 18.15 18.16 19.09 18.91 20.24" stroke="#FCFCFD" stroke-opacity="1.000000" stroke-width="2.000000" stroke-linejoin="round" stroke-linecap="round"/>
	<path id="Vector" d="M12 9L3 6L12 3L21 6L12 9Z" stroke="#FCFCFD" stroke-opacity="1.000000" stroke-width="2.000000" stroke-linejoin="round"/>
	<path id="Vector" d="M15.87 7.7C16.55 8.45 17.01 9.39 17.18 10.39C17.34 11.4 17.21 12.43 16.8 13.36C16.39 14.29 15.72 15.09 14.86 15.64C14.01 16.2 13.01 16.5 12 16.5C10.98 16.5 9.98 16.2 9.13 15.64C8.27 15.09 7.6 14.29 7.19 13.36C6.78 12.43 6.65 11.4 6.81 10.39C6.98 9.39 7.44 8.45 8.12 7.7" stroke="#FCFCFD" stroke-opacity="1.000000" stroke-width="2.000000" stroke-linejoin="round" stroke-linecap="round"/>
</svg>
