<svg width="20.000000" height="20.000000" viewBox="0 0 20 20" fill="none" xmlns="http://www.w3.org/2000/svg" xmlns:xlink="http://www.w3.org/1999/xlink">
	<desc>
			Created with Pixso.
	</desc>
	<defs/>
	<path id="Vector" d="M3.28 3.28L2.02 9.58C2 9.68 2 9.79 2.03 9.88C2.06 9.98 2.12 10.07 2.19 10.14L10.35 18.3C10.4 18.36 10.47 18.41 10.55 18.44C10.62 18.47 10.71 18.49 10.79 18.49C10.87 18.49 10.95 18.47 11.03 18.44C11.1 18.41 11.17 18.36 11.23 18.3L18.3 11.23C18.36 11.17 18.41 11.1 18.44 11.03C18.47 10.95 18.49 10.87 18.49 10.79C18.49 10.71 18.47 10.62 18.44 10.55C18.41 10.47 18.36 10.4 18.3 10.35L10.14 2.19C10.07 2.12 9.98 2.06 9.88 2.03C9.79 2 9.68 2 9.58 2.02L3.28 3.28Z" stroke="#1F7949" stroke-opacity="1.000000" stroke-width="1.500000" stroke-linejoin="round"/>
	<path id="Vector" d="M7.5 6.56C7.5 7.08 7.08 7.5 6.56 7.5C6.04 7.5 5.62 7.08 5.62 6.56C5.62 6.04 6.04 5.62 6.56 5.62C7.08 5.62 7.5 6.04 7.5 6.56Z" fill="#1F7949" fill-opacity="1.000000" fill-rule="evenodd"/>
</svg>
