<svg width="24.000000" height="24.000000" viewBox="0 0 24 24" fill="none" xmlns="http://www.w3.org/2000/svg" xmlns:xlink="http://www.w3.org/1999/xlink">
	<desc>
			Created with Pixso.
	</desc>
	<defs/>
	<path id="Vector" d="M17.13 20.87C17.74 21.26 18.49 20.69 18.31 19.98L16.95 14.6C16.91 14.45 16.91 14.3 16.96 14.15C17.01 14 17.1 13.87 17.22 13.78L21.46 10.24C22.01 9.78 21.73 8.85 21.01 8.81L15.47 8.45C15.32 8.44 15.18 8.39 15.06 8.3C14.93 8.21 14.84 8.09 14.79 7.95L12.73 2.75C12.67 2.6 12.57 2.47 12.44 2.38C12.31 2.29 12.16 2.24 12 2.24C11.84 2.24 11.68 2.29 11.55 2.38C11.42 2.47 11.32 2.6 11.26 2.75L9.2 7.95C9.15 8.09 9.06 8.21 8.93 8.3C8.81 8.39 8.67 8.44 8.52 8.45L2.99 8.81C2.26 8.85 1.98 9.78 2.54 10.24L6.77 13.78C6.89 13.87 6.98 14 7.03 14.15C7.08 14.3 7.08 14.45 7.05 14.6L5.78 19.59C5.56 20.43 6.46 21.12 7.19 20.66L11.58 17.87C11.71 17.79 11.85 17.75 12 17.75C12.14 17.75 12.29 17.79 12.41 17.87L17.13 20.87Z" stroke="#FA9116" stroke-opacity="1.000000" stroke-width="1.500000" stroke-linejoin="round"/>
</svg>
