<svg width="16.000000" height="16.000000" viewBox="0 0 16 16" fill="none" xmlns="http://www.w3.org/2000/svg" xmlns:xlink="http://www.w3.org/1999/xlink">
	<desc>
			Created with Pixso.
	</desc>
	<defs>
		<clipPath id="clip322_2280">
			<rect id="icons/Star/Filled" width="16.000000" height="16.000000" fill="white" fill-opacity="0"/>
		</clipPath>
	</defs>
	<g clip-path="url(#clip322_2280)">
		<path id="Shape" d="M7.38 2.08C7.61 1.54 8.38 1.54 8.61 2.08L10.06 5.45C10.16 5.68 10.37 5.83 10.62 5.85L14.35 6.14C14.95 6.18 15.18 6.93 14.72 7.32L11.92 9.63C11.72 9.79 11.63 10.05 11.7 10.3L12.56 13.79C12.7 14.36 12.08 14.82 11.57 14.52L8.33 12.62C8.12 12.49 7.87 12.49 7.66 12.62L4.42 14.52C3.91 14.82 3.29 14.36 3.43 13.79L4.29 10.3C4.36 10.05 4.27 9.79 4.07 9.63L1.27 7.32C0.81 6.93 1.04 6.18 1.64 6.14L5.37 5.85C5.62 5.83 5.83 5.68 5.93 5.45L7.38 2.08Z" fill="#23262F" fill-opacity="1.000000" fill-rule="nonzero"/>
	</g>
</svg>
