<svg width="20.000000" height="20.000000" viewBox="0 0 20 20" fill="none" xmlns="http://www.w3.org/2000/svg" xmlns:xlink="http://www.w3.org/1999/xlink">
	<desc>
			Created with Pixso.
	</desc>
	<defs>
		<clipPath id="clip11_4898">
			<rect id="headset 2" width="20.000000" height="20.000000" fill="white" fill-opacity="0"/>
		</clipPath>
	</defs>
	<rect id="headset 2" width="20.000000" height="20.000000" fill="#FFFFFF" fill-opacity="0"/>
	<g clip-path="url(#clip11_4898)">
		<rect id="Vector" width="20.000000" height="20.000000" fill="#FFFFFF" fill-opacity="0"/>
		<path id="Vector" d="M10 1.87C5.51 1.87 1.87 5.51 1.87 10L1.87 11.56C1.87 12.08 1.45 12.5 0.93 12.5C0.41 12.5 0 12.08 0 11.56L0 10C0 4.47 4.47 0 10 0C15.52 0 20 4.47 20 10L20 15.62C20 17.52 18.46 19.06 16.55 19.06L12.25 19.06C11.92 19.62 11.32 20 10.62 20L9.37 20C8.33 20 7.5 19.16 7.5 18.12C7.5 17.08 8.33 16.25 9.37 16.25L10.62 16.25C11.32 16.25 11.92 16.62 12.25 17.18L16.56 17.19C17.42 17.19 18.12 16.49 18.12 15.62L18.12 10C18.12 5.51 14.48 1.87 10 1.87ZM5.62 8.12L6.25 8.12C6.94 8.12 7.5 8.68 7.5 9.37L7.5 13.75C7.5 14.44 6.94 15 6.25 15L5.62 15C4.24 15 3.12 13.87 3.12 12.5L3.12 10.62C3.12 9.24 4.24 8.12 5.62 8.12ZM14.37 8.12C15.75 8.12 16.87 9.24 16.87 10.62L16.87 12.5C16.87 13.87 15.75 15 14.37 15L13.75 15C13.05 15 12.5 14.44 12.5 13.75L12.5 9.37C12.5 8.68 13.05 8.12 13.75 8.12L14.37 8.12Z" fill="#FA9116" fill-opacity="1.000000" fill-rule="evenodd"/>
	</g>
</svg>
