<svg width="20.000000" height="20.000000" viewBox="0 0 20 20" fill="none" xmlns="http://www.w3.org/2000/svg" xmlns:xlink="http://www.w3.org/1999/xlink">
	<desc>
			Created with Pixso.
	</desc>
	<defs/>
	<path id="telegram" d="M2.7 9.04C7.24 6.69 10.27 5.13 11.78 4.38C16.11 2.24 17.01 1.86 17.6 1.85C17.73 1.85 18.01 1.89 18.2 2.07C18.36 2.22 18.4 2.43 18.42 2.57C18.44 2.71 18.47 3.04 18.45 3.3C18.21 6.24 17.2 13.36 16.68 16.65C16.47 18.04 16.04 18.5 15.62 18.55C14.71 18.65 14.03 17.84 13.15 17.15C11.78 16.08 11 15.42 9.67 14.37C8.13 13.16 9.13 12.5 10.01 11.41C10.24 11.13 14.22 6.81 14.3 6.42C14.31 6.37 14.32 6.19 14.23 6.09C14.14 5.99 14 6.03 13.91 6.05C13.77 6.09 11.58 7.82 7.33 11.23C6.71 11.74 6.15 11.99 5.64 11.97C5.09 11.96 4.02 11.6 3.22 11.29C2.25 10.91 1.47 10.71 1.54 10.07C1.57 9.74 1.96 9.39 2.7 9.04Z" fill="#FA9116" fill-opacity="1.000000" fill-rule="nonzero"/>
</svg>
