<svg width="16.000000" height="16.000000" viewBox="0 0 16 16" fill="none" xmlns="http://www.w3.org/2000/svg" xmlns:xlink="http://www.w3.org/1999/xlink">
	<desc>
			Created with Pixso.
	</desc>
	<defs/>
	<path id="@" d="M9.36 0C10.73 0 11.92 0.26 12.92 0.79C13.92 1.31 14.68 2.06 15.2 3.01C15.73 3.95 16 5.05 16 6.31C16 7.31 15.83 8.27 15.49 9.19C15.16 10.11 14.69 10.86 14.06 11.43C13.45 12.01 12.72 12.3 11.87 12.3C11.26 12.3 10.78 12.16 10.43 11.89C10.08 11.6 9.86 11.2 9.78 10.68C9.4 11.18 8.93 11.58 8.37 11.87C7.8 12.16 7.21 12.3 6.59 12.3C5.67 12.3 4.94 12.01 4.41 11.43C3.89 10.84 3.63 10.05 3.63 9.04C3.63 8.09 3.82 7.19 4.19 6.36C4.58 5.54 5.11 4.88 5.8 4.39C6.49 3.88 7.26 3.63 8.11 3.63C9.16 3.63 9.9 4 10.32 4.74L10.48 3.8L12.27 3.8L11.37 9.19C11.33 9.46 11.31 9.69 11.31 9.89C11.31 10.22 11.37 10.46 11.49 10.62C11.63 10.79 11.85 10.87 12.18 10.87C12.64 10.87 13.03 10.64 13.36 10.17C13.68 9.69 13.92 9.11 14.08 8.42C14.25 7.73 14.33 7.06 14.33 6.4C14.33 4.81 13.89 3.59 12.99 2.75C12.1 1.9 10.81 1.48 9.11 1.48C7.68 1.48 6.41 1.84 5.27 2.54C4.15 3.24 3.27 4.21 2.63 5.44C2 6.67 1.68 8.04 1.68 9.55C1.68 11.16 2.13 12.38 3.05 13.22C3.97 14.07 5.27 14.49 6.97 14.49C8.12 14.49 9.12 14.27 9.97 13.83L10.25 15.26C9.15 15.75 7.92 16 6.56 16C5.24 16 4.09 15.74 3.1 15.22C2.12 14.71 1.35 13.97 0.81 13.02C0.27 12.08 0 10.98 0 9.72C0 7.92 0.39 6.28 1.19 4.8C2 3.32 3.11 2.15 4.53 1.3C5.96 0.43 7.56 0 9.36 0ZM7.23 10.64C7.73 10.64 8.19 10.49 8.6 10.19C9.02 9.88 9.35 9.47 9.6 8.97C9.84 8.45 9.96 7.9 9.96 7.33C9.96 6.72 9.79 6.23 9.47 5.86C9.16 5.47 8.71 5.27 8.13 5.27C7.61 5.27 7.15 5.44 6.76 5.78C6.37 6.11 6.07 6.53 5.85 7.06C5.65 7.59 5.55 8.14 5.55 8.72C5.55 9.31 5.68 9.78 5.96 10.13C6.24 10.47 6.66 10.64 7.23 10.64Z" fill="#23262F" fill-opacity="1.000000" fill-rule="nonzero"/>
</svg>
