<svg width="24.000000" height="24.000000" viewBox="0 0 24 24" fill="none" xmlns="http://www.w3.org/2000/svg" xmlns:xlink="http://www.w3.org/1999/xlink">
	<desc>
			Created with Pixso.
	</desc>
	<defs>
		<clipPath id="clip5_3797">
			<rect id="icons/Clock/Line" width="24.000000" height="24.000000" fill="white" fill-opacity="0"/>
		</clipPath>
	</defs>
	<g clip-path="url(#clip5_3797)">
		<path id="Shape" d="M12 20C16.41 20 20 16.41 20 12C20 7.58 16.41 4 12 4C7.58 4 4 7.58 4 12C4 16.41 7.58 20 12 20ZM12 22C17.52 22 22 17.52 22 12C22 6.47 17.52 2 12 2C6.47 2 2 6.47 2 12C2 17.52 6.47 22 12 22Z" fill="#FA9116" fill-opacity="1.000000" fill-rule="evenodd"/>
		<path id="Shape" d="M12 6C12.55 6 13 6.44 13 7L13 11.58L15.2 13.79C15.59 14.18 15.59 14.81 15.2 15.2C14.81 15.59 14.18 15.59 13.79 15.2L11.29 12.7C11.1 12.51 11 12.26 11 12L11 7C11 6.44 11.44 6 12 6Z" fill="#FA9116" fill-opacity="1.000000" fill-rule="evenodd"/>
	</g>
</svg>
